<svg width="21" height="19" viewBox="0 0 21 19" fill="none" xmlns="http://www.w3.org/2000/svg">
<path d="M20.1242 0.562891C19.9155 0.38993 19.6639 0.276659 19.3961 0.235088C19.1283 0.193517 18.8542 0.225194 18.6029 0.326762L1.26385 7.32644C0.983662 7.44158 0.745117 7.63922 0.579886 7.89311C0.414655 8.14701 0.330552 8.44515 0.338742 8.74796C0.346932 9.05078 0.447027 9.34394 0.62574 9.58853C0.804453 9.83313 1.05333 10.0176 1.33934 10.1174L5.08063 11.4161L7.10804 18.1187C7.11192 18.1322 7.1245 18.141 7.1303 18.1535C7.15119 18.207 7.18169 18.2562 7.2203 18.2987C7.27896 18.3642 7.35469 18.4121 7.43901 18.4371C7.44869 18.441 7.45546 18.4497 7.46514 18.4516H7.47095L7.47385 18.4526C7.54872 18.4687 7.62652 18.4647 7.69934 18.441C7.70708 18.439 7.71482 18.439 7.72353 18.4361C7.79344 18.4116 7.85671 18.3712 7.90837 18.3181C7.91417 18.3113 7.92385 18.3103 7.92966 18.3045L10.8455 15.0858L15.1006 18.381C15.359 18.5832 15.6774 18.6926 16.0055 18.6926C16.7158 18.6926 17.3284 18.1951 17.4745 17.5013L20.6313 1.99999C20.6848 1.73683 20.6659 1.46408 20.5766 1.21082C20.4873 0.957556 20.3309 0.733284 20.1242 0.561923V0.562891ZM8.16579 12.6887L7.48159 16.0148L6.05417 11.2942L13.1332 7.60708L8.2974 12.4439C8.23043 12.5108 8.18466 12.5959 8.16579 12.6887ZM16.5261 17.3068C16.5079 17.3945 16.4675 17.4761 16.4087 17.5437C16.3499 17.6114 16.2747 17.6627 16.1903 17.6929C16.108 17.7246 16.0188 17.7343 15.9316 17.721C15.8444 17.7078 15.7621 17.6721 15.6929 17.6174L11.0835 14.0474C10.9872 13.973 10.8663 13.9377 10.7451 13.9485C10.6238 13.9592 10.5111 14.0153 10.4293 14.1055L8.39998 16.3419L9.08321 13.0255L16.0403 6.06741C16.1218 5.98566 16.1713 5.87749 16.1801 5.76241C16.1888 5.64733 16.1561 5.53292 16.0879 5.43983C16.0197 5.34673 15.9204 5.28109 15.8081 5.25473C15.6957 5.22838 15.5776 5.24306 15.4751 5.29612L5.44643 10.52L1.65579 9.20192C1.55528 9.16873 1.46762 9.10504 1.40501 9.0197C1.34239 8.93436 1.30793 8.83163 1.30643 8.72579C1.30161 8.61902 1.33014 8.5134 1.38806 8.42357C1.44597 8.33375 1.53041 8.26417 1.62966 8.2245L18.9658 1.22483C19.0546 1.18708 19.1522 1.17487 19.2476 1.18958C19.343 1.20428 19.4324 1.24531 19.5058 1.30805C19.5787 1.36707 19.6338 1.44521 19.6649 1.53373C19.696 1.62225 19.7019 1.71767 19.6819 1.80934L16.5261 17.3077V17.3068Z" fill="black"/>
</svg>
