<svg width="45" height="45" fill="none" xmlns="http://www.w3.org/2000/svg"><circle cx="22.5" cy="22.5" r="22.5" fill="#121936"/><path d="M22.5 12a7.876 7.876 0 0 0-7.875 7.875c0 5.058 3.803 7.27 4.644 8.279C21.29 30.577 21.403 33 22.5 33s1.212-2.423 3.23-4.846c.841-1.01 4.645-3.22 4.645-8.279A7.876 7.876 0 0 0 22.5 12Zm0 13.125a5.25 5.25 0 1 1 0-10.5 5.25 5.25 0 0 1 0 10.5Zm0-7.875a2.626 2.626 0 0 0 0 5.25 2.626 2.626 0 0 0 0-5.25Z" fill="#FFD74B"/><circle cx="22.5" cy="19.875" fill="#161C35" r=".875"/></svg>