<svg style="display: none" xmlns="http://www.w3.org/2000/svg">
  <symbol id="plane" viewBox="0 0 18 20">
    <path d="M15.7831 0.0931421C15.0546 0.266353 14.3227 0.440377 14.0504 0.917233L11.9433 5.11585L0.629163 7.8059L0.170763 9.14743L8.82861 9.96616L7.35967 13.6009L4.07624 14.3816L3.25187 15.8101L5.62062 16.0673L5.89073 17.2357C6.01174 17.6498 6.43649 17.9263 6.79903 17.8401L7.89351 17.5799L9.16224 19.7433L9.98661 18.3148L9.17628 14.8098L11.5535 11.7795L16.0895 19.741L17.0042 18.7031L14.2128 6.62921L16.7762 2.73424C17.0519 2.25657 16.8721 1.47891 16.6914 0.697594C16.6019 0.310588 16.1457 0.0069433 15.7831 0.0931421Z" fill="#101D41"/>
  </symbol>
  <symbol id="bus" viewBox="0 0 18 21">
    <g clip-path="url(#clip0_20669_789)">
    <path d="M4.34047 13.9485C4.34047 13.5699 4.20186 13.2467 3.92463 12.9788C3.64741 12.711 3.31289 12.5771 2.92108 12.5771C2.52927 12.5771 2.19475 12.711 1.91752 12.9788C1.6403 13.2467 1.50168 13.5699 1.50168 13.9485C1.50168 14.3271 1.6403 14.6503 1.91752 14.9181C2.19475 15.186 2.52927 15.3199 2.92108 15.3199C3.31289 15.3199 3.64741 15.186 3.92463 14.9181C4.20186 14.6503 4.34047 14.3271 4.34047 13.9485ZM15.6956 13.9485C15.6956 13.5699 15.557 13.2467 15.2798 12.9788C15.0026 12.711 14.668 12.5771 14.2762 12.5771C13.8844 12.5771 13.5499 12.711 13.2727 12.9788C12.9955 13.2467 12.8568 13.5699 12.8568 13.9485C12.8568 14.3271 12.9955 14.6503 13.2727 14.9181C13.5499 15.186 13.8844 15.3199 14.2762 15.3199C14.668 15.3199 15.0026 15.186 15.2798 14.9181C15.557 14.6503 15.6956 14.3271 15.6956 13.9485ZM15.1855 9.70563L14.3871 5.59135C14.3502 5.42706 14.267 5.29313 14.1376 5.18956C14.0082 5.08599 13.8585 5.0342 13.6885 5.0342H3.5088C3.33877 5.0342 3.18906 5.08599 3.05969 5.18956C2.93032 5.29313 2.84715 5.42706 2.81019 5.59135L2.01178 9.70563C1.97482 9.91992 2.02656 10.1092 2.16703 10.2735C2.30749 10.4378 2.48861 10.5199 2.71039 10.5199H14.4869C14.7087 10.5199 14.8898 10.4378 15.0303 10.2735C15.1707 10.1092 15.2225 9.91992 15.1855 9.70563ZM12.6794 3.14849C12.6794 3.00563 12.6277 2.88421 12.5242 2.78421C12.4207 2.68421 12.295 2.63421 12.1471 2.63421H5.05017C4.90232 2.63421 4.77664 2.68421 4.67314 2.78421C4.56965 2.88421 4.5179 3.00563 4.5179 3.14849C4.5179 3.29135 4.56965 3.41278 4.67314 3.51278C4.77664 3.61278 4.90232 3.66278 5.05017 3.66278H12.1471C12.295 3.66278 12.4207 3.61278 12.5242 3.51278C12.6277 3.41278 12.6794 3.29135 12.6794 3.14849ZM17.115 10.9163V17.3771H15.6956V18.7485C15.6956 19.1271 15.557 19.4503 15.2798 19.7181C15.0026 19.986 14.668 20.1199 14.2762 20.1199C13.8844 20.1199 13.5499 19.986 13.2727 19.7181C12.9955 19.4503 12.8568 19.1271 12.8568 18.7485V17.3771H4.34047V18.7485C4.34047 19.1271 4.20186 19.4503 3.92463 19.7181C3.64741 19.986 3.31289 20.1199 2.92108 20.1199C2.52927 20.1199 2.19475 19.986 1.91752 19.7181C1.6403 19.4503 1.50168 19.1271 1.50168 18.7485V17.3771H0.0822906V10.9163C0.0822906 10.1163 0.174699 9.31992 0.359516 8.52706L1.50168 3.66278C1.56822 3.10563 1.92861 2.61635 2.58286 2.19492C3.23712 1.77349 4.08727 1.45564 5.13334 1.24135C6.1794 1.02706 7.33451 0.919922 8.59866 0.919922C9.8628 0.919922 11.0179 1.02706 12.064 1.24135C13.11 1.45564 13.9602 1.77349 14.6144 2.19492C15.2687 2.61635 15.6291 3.10563 15.6956 3.66278L16.86 8.52706C17.03 9.25563 17.115 10.0521 17.115 10.9163Z" fill="#1D2E5B"/>
    </g>
    <defs>
    <clipPath id="clip0_20669_789">
    <rect width="17.0398" height="19.2" fill="white" transform="translate(0.0795898 0.919922)"/>
    </clipPath>
    </defs>
  </symbol>
  <symbol id="bike" viewBox="0 0 25 24">
    <path d="M18.3075 21C17.4664 21 16.6443 20.7471 15.9449 20.2732C15.2456 19.7994 14.7005 19.1258 14.3787 18.3378C14.0568 17.5498 13.9726 16.6827 14.1367 15.8462C14.3008 15.0096 14.7058 14.2412 15.3005 13.6381C15.8952 13.035 16.653 12.6243 17.4779 12.4579C18.3028 12.2915 19.1579 12.3769 19.9349 12.7033C20.712 13.0297 21.3761 13.5824 21.8434 14.2916C22.3107 15.0008 22.5601 15.8346 22.5601 16.6875C22.5589 17.8309 22.1104 18.927 21.3132 19.7355C20.5159 20.544 19.435 20.9988 18.3075 21ZM18.3075 13.875C17.759 13.875 17.2228 14.04 16.7667 14.349C16.3106 14.658 15.9551 15.0973 15.7452 15.6112C15.5353 16.1251 15.4804 16.6906 15.5874 17.2362C15.6944 17.7818 15.9586 18.2829 16.3464 18.6762C16.7343 19.0696 17.2285 19.3374 17.7665 19.446C18.3045 19.5545 18.8621 19.4988 19.3689 19.2859C19.8756 19.073 20.3088 18.7126 20.6135 18.25C20.9183 17.7875 21.0809 17.2438 21.0809 16.6875C21.0801 15.9418 20.7876 15.227 20.2677 14.6997C19.7477 14.1725 19.0428 13.8759 18.3075 13.875Z" fill="#1D2E5B"/>
    <path d="M6.10452 21C5.26345 21 4.44126 20.7471 3.74193 20.2732C3.0426 19.7994 2.49753 19.1258 2.17567 18.3378C1.8538 17.5498 1.76959 16.6827 1.93367 15.8462C2.09776 15.0096 2.50278 14.2412 3.09751 13.6381C3.69224 13.035 4.44997 12.6243 5.27489 12.4579C6.09981 12.2915 6.95486 12.3769 7.73191 12.7033C8.50896 13.0297 9.17312 13.5824 9.6404 14.2916C10.1077 15.0008 10.3571 15.8346 10.3571 16.6875C10.3559 17.8309 9.90743 18.927 9.11019 19.7355C8.31294 20.544 7.232 20.9988 6.10452 21ZM6.10452 13.875C5.556 13.875 5.01978 14.04 4.5637 14.349C4.10761 14.658 3.75214 15.0973 3.54223 15.6112C3.33231 16.1251 3.27739 16.6906 3.3844 17.2362C3.49142 17.7818 3.75556 18.2829 4.14343 18.6762C4.5313 19.0696 5.02547 19.3374 5.56346 19.446C6.10145 19.5545 6.65909 19.4988 7.16586 19.2859C7.67264 19.073 8.10579 18.7126 8.41053 18.25C8.71528 17.7875 8.87794 17.2438 8.87794 16.6875C8.87708 15.9418 8.58461 15.227 8.06468 14.6997C7.54475 14.1725 6.83982 13.8759 6.10452 13.875Z" fill="#1D2E5B"/>
    <path d="M15.1643 6.00005C15.3591 6.00073 15.5522 5.96225 15.7322 5.88681C15.9123 5.81138 16.0758 5.7005 16.2134 5.56058C16.3509 5.42065 16.4598 5.25447 16.5336 5.07163C16.6074 4.88879 16.6448 4.69293 16.6435 4.49536C16.6456 4.29878 16.6091 4.10374 16.5361 3.92164C16.463 3.73954 16.3549 3.57403 16.218 3.4348C16.0812 3.29558 15.9183 3.18542 15.739 3.11077C15.5596 3.03612 15.3674 2.99848 15.1736 3.00005C14.9793 2.99943 14.7869 3.03762 14.6072 3.11243C14.4275 3.18725 14.2641 3.29722 14.1263 3.43607C13.9885 3.57493 13.8791 3.73994 13.8042 3.92169C13.7293 4.10344 13.6904 4.29838 13.6898 4.49536C13.6892 4.69234 13.7268 4.88752 13.8006 5.06974C13.8744 5.25197 13.9828 5.41767 14.1198 5.55739C14.2567 5.69712 14.4194 5.80812 14.5986 5.88407C14.7779 5.96002 14.9701 5.99943 15.1643 6.00005Z" fill="#1D2E5B"/>
    <path d="M17.3623 9.00003H15.3395C15.3063 9.00004 15.2738 8.99099 15.2452 8.97384C15.2167 8.95668 15.1932 8.93205 15.1773 8.90253L13.7101 6.17581C13.6068 5.97318 13.4578 5.79807 13.2753 5.66467C13.0928 5.53127 12.8819 5.44333 12.6596 5.40795C12.4374 5.37258 12.21 5.39077 11.996 5.46106C11.7819 5.53135 11.5872 5.65175 11.4276 5.81253L8.19845 9.11253C7.92716 9.39333 7.77317 9.76945 7.76857 10.1625C7.76857 10.9782 8.35099 11.2688 8.6237 11.4328C9.94107 12.2025 10.8688 12.7655 11.3777 13.0782C11.4048 13.0949 11.4271 13.1183 11.4427 13.1463C11.4582 13.1743 11.4664 13.2059 11.4665 13.238V16.478C11.4665 16.8816 11.7724 17.228 12.1704 17.2482C12.2704 17.253 12.3702 17.2373 12.464 17.2019C12.5577 17.1666 12.6434 17.1123 12.7159 17.0423C12.7884 16.9724 12.8461 16.8883 12.8856 16.7951C12.925 16.7018 12.9455 16.6015 12.9456 16.5V12.4688C12.9457 12.3497 12.9178 12.2324 12.8643 12.1264C12.8107 12.0204 12.7331 11.9289 12.6378 11.8594L10.9275 10.6121C10.906 10.5965 10.8881 10.5764 10.8749 10.5532C10.8617 10.53 10.8536 10.5043 10.851 10.4776C10.8485 10.451 10.8516 10.4241 10.8602 10.3988C10.8687 10.3734 10.8825 10.3503 10.9007 10.3308L12.8421 8.23128C12.862 8.20968 12.8866 8.19316 12.914 8.18307C12.9414 8.17297 12.9708 8.1696 12.9997 8.17321C13.0287 8.17682 13.0564 8.18731 13.0805 8.20384C13.1047 8.22037 13.1247 8.24246 13.1388 8.26831L14.1474 10.1143C14.2115 10.2313 14.3053 10.3288 14.4191 10.3966C14.5329 10.4644 14.6625 10.5001 14.7945 10.5H17.3831C17.4833 10.5002 17.5824 10.4796 17.6746 10.4397C17.7667 10.3998 17.8499 10.3413 17.919 10.2678C17.9882 10.1942 18.0419 10.1073 18.0769 10.012C18.1119 9.91685 18.1275 9.81542 18.1226 9.71394C18.1032 9.31035 17.7602 9.00003 17.3623 9.00003Z" fill="#1D2E5B"/>
  </symbol>
  <symbol id="foot" viewBox="0 0 21 24">
    <path d="M14.9758 5.75992C15.9264 5.75992 16.697 4.90031 16.697 3.83992C16.697 2.77954 15.9264 1.91992 14.9758 1.91992C14.0253 1.91992 13.2547 2.77954 13.2547 3.83992C13.2547 4.90031 14.0253 5.75992 14.9758 5.75992Z" fill="#1D2E5B"/>
    <path d="M13.9234 10.5302C14.1209 10.8586 14.4043 11.1113 14.735 11.2538C15.0657 11.3964 15.4277 11.4219 15.7719 11.327L18.6257 10.5312L18.21 8.66881L15.3563 9.46465L14.1695 7.48033C13.9159 7.05655 13.5224 6.76184 13.0748 6.66049L9.76496 5.92129C9.39468 5.83839 9.01024 5.89379 8.671 6.07893C8.33176 6.26406 8.0566 6.56863 7.888 6.94561L6.46113 10.129L8.00074 10.9882L9.42761 7.80385L11.1204 8.18209L6.74341 16.32H2.92752V18.24H6.74341C7.3441 18.24 7.90952 17.8829 8.21933 17.3078L9.86996 14.2397L14.3184 15.2323L15.8812 20.4634L17.5129 19.8557L15.9509 14.6256C15.8545 14.3045 15.684 14.0174 15.4564 13.7933C15.2289 13.5691 14.9524 13.4158 14.6549 13.3488L12.0395 12.7661L13.5645 9.93025L13.9234 10.5302Z" fill="#1D2E5B"/>
  </symbol>
  <symbol id="arr-right" viewBox="0 0 10 19">
    <path d="M1.06949 18.3693C1.16815 18.481 1.28536 18.5695 1.41439 18.63C1.54343 18.6904 1.68176 18.7216 1.82146 18.7216C1.96117 18.7216 2.0995 18.6904 2.22853 18.63C2.35757 18.5695 2.47477 18.481 2.57344 18.3693L9.63433 10.398C9.7131 10.3092 9.77559 10.2038 9.81823 10.0878C9.86086 9.97171 9.88281 9.84732 9.88281 9.72169C9.88281 9.59605 9.86086 9.47166 9.81823 9.35561C9.77559 9.23957 9.7131 9.13416 9.63433 9.04542L2.57344 1.07408C2.15709 0.60405 1.48584 0.60405 1.06949 1.07408C0.653145 1.54411 1.32374 2.3591 1.74009 2.82913L7.82453 9.72169L1.41439 16.972C1.00654 17.4324 0.653145 17.9089 1.06949 18.3693Z" fill="black"/>
  </symbol>
  <symbol id="arr-left" viewBox="0 0 9 19">
    <path d="M8.8116 0.400608C8.71296 0.288944 8.59577 0.200351 8.46676 0.139903C8.33775 0.0794548 8.19945 0.0483398 8.05977 0.0483398C7.92009 0.0483398 7.78179 0.0794548 7.65278 0.139903C7.52377 0.200351 7.40659 0.288944 7.30795 0.400608L0.248437 8.37194C0.169684 8.46069 0.107204 8.5661 0.0645734 8.68214C0.0219433 8.79818 0 8.92258 0 9.04821C0 9.17384 0.0219433 9.29824 0.0645734 9.41428C0.107204 9.53033 0.169684 9.63574 0.248437 9.72448L7.30795 17.6958C7.72421 18.1658 8.39533 18.1658 8.8116 17.6958C9.22786 17.2258 8.88303 16.7322 8.46676 16.2622L4.74854 12.0836L2.12914 9.01725L8.8207 1.30298C8.8207 1.30298 9.22786 0.861046 8.8116 0.400608Z" fill="black"/>
  </symbol>
  <symbol id="telegram" viewBox="0 0 21 19">
    <path d="M20.1242 0.562891C19.9155 0.38993 19.6639 0.276659 19.3961 0.235088C19.1283 0.193517 18.8542 0.225194 18.6029 0.326762L1.26385 7.32644C0.983662 7.44158 0.745117 7.63922 0.579886 7.89311C0.414655 8.14701 0.330552 8.44515 0.338742 8.74796C0.346932 9.05078 0.447027 9.34394 0.62574 9.58853C0.804453 9.83313 1.05333 10.0176 1.33934 10.1174L5.08063 11.4161L7.10804 18.1187C7.11192 18.1322 7.1245 18.141 7.1303 18.1535C7.15119 18.207 7.18169 18.2562 7.2203 18.2987C7.27896 18.3642 7.35469 18.4121 7.43901 18.4371C7.44869 18.441 7.45546 18.4497 7.46514 18.4516H7.47095L7.47385 18.4526C7.54872 18.4687 7.62652 18.4647 7.69934 18.441C7.70708 18.439 7.71482 18.439 7.72353 18.4361C7.79344 18.4116 7.85671 18.3712 7.90837 18.3181C7.91417 18.3113 7.92385 18.3103 7.92966 18.3045L10.8455 15.0858L15.1006 18.381C15.359 18.5832 15.6774 18.6926 16.0055 18.6926C16.7158 18.6926 17.3284 18.1951 17.4745 17.5013L20.6313 1.99999C20.6848 1.73683 20.6659 1.46408 20.5766 1.21082C20.4873 0.957556 20.3309 0.733284 20.1242 0.561923V0.562891ZM8.16579 12.6887L7.48159 16.0148L6.05417 11.2942L13.1332 7.60708L8.2974 12.4439C8.23043 12.5108 8.18466 12.5959 8.16579 12.6887ZM16.5261 17.3068C16.5079 17.3945 16.4675 17.4761 16.4087 17.5437C16.3499 17.6114 16.2747 17.6627 16.1903 17.6929C16.108 17.7246 16.0188 17.7343 15.9316 17.721C15.8444 17.7078 15.7621 17.6721 15.6929 17.6174L11.0835 14.0474C10.9872 13.973 10.8663 13.9377 10.7451 13.9485C10.6238 13.9592 10.5111 14.0153 10.4293 14.1055L8.39998 16.3419L9.08321 13.0255L16.0403 6.06741C16.1218 5.98566 16.1713 5.87749 16.1801 5.76241C16.1888 5.64733 16.1561 5.53292 16.0879 5.43983C16.0197 5.34673 15.9204 5.28109 15.8081 5.25473C15.6957 5.22838 15.5776 5.24306 15.4751 5.29612L5.44643 10.52L1.65579 9.20192C1.55528 9.16873 1.46762 9.10504 1.40501 9.0197C1.34239 8.93436 1.30793 8.83163 1.30643 8.72579C1.30161 8.61902 1.33014 8.5134 1.38806 8.42357C1.44597 8.33375 1.53041 8.26417 1.62966 8.2245L18.9658 1.22483C19.0546 1.18708 19.1522 1.17487 19.2476 1.18958C19.343 1.20428 19.4324 1.24531 19.5058 1.30805C19.5787 1.36707 19.6338 1.44521 19.6649 1.53373C19.696 1.62225 19.7019 1.71767 19.6819 1.80934L16.5261 17.3077V17.3068Z" fill="black"/>
  </symbol>
  <symbol id="vkontakte" viewBox="0 0 31 24">
    <path d="M24.8332 19.7888C24.0954 19.7722 23.3762 19.5543 22.7532 19.1588C22.1028 18.7192 21.5055 18.2058 20.9732 17.6288C20.5332 17.1888 19.8032 16.4488 19.5232 16.4488C19.2432 16.4488 19.0432 17.3688 19.0532 18.0188C19.0574 18.4674 18.8892 18.9006 18.5832 19.2288C18.2352 19.513 17.8105 19.6871 17.3632 19.7288H15.4432C12.6836 19.6681 10.0412 18.6012 8.01316 16.7288C4.33316 13.3588 1.17316 6.91876 1.04316 6.63876C0.919163 6.40485 0.867235 6.13944 0.893931 5.87604C0.920627 5.61263 1.02475 5.36304 1.19316 5.15876C1.5743 4.84091 2.05695 4.67056 2.55316 4.67876H6.63316H6.75316C7.09074 4.72801 7.41432 4.84723 7.70316 5.02876C7.97498 5.21103 8.19262 5.46321 8.33316 5.75876C8.76434 6.68183 9.25885 7.57396 9.81316 8.42876C11.1232 10.4288 11.7032 10.8888 11.9132 10.9888C12.1468 10.051 12.2111 9.07911 12.1032 8.11876C12.1382 7.68137 12.0661 7.24203 11.8932 6.83876C11.6736 6.66314 11.404 6.56161 11.1232 6.54876L10.3932 5.85876C10.2532 5.19876 10.9832 4.62876 11.4932 4.40876C12.5109 4.08986 13.5787 3.96105 14.6432 4.02876H15.3532C16.0752 4.00996 16.797 4.0771 17.5032 4.22876C19.2032 4.58876 19.1432 5.95876 19.0732 7.53876C19.0732 7.99876 19.0232 8.53876 19.0232 9.15876C19.0232 9.30876 19.0232 9.46876 19.0232 9.63876C18.9838 10.0741 19.0142 10.513 19.1132 10.9388C19.9457 10.2423 20.6468 9.40239 21.1832 8.45876C21.7621 7.5665 22.2703 6.63031 22.7032 5.65876C22.835 5.35148 23.061 5.09395 23.3485 4.92324C23.636 4.75253 23.9703 4.67743 24.3032 4.70876H28.5832C28.7095 4.6967 28.8368 4.6967 28.9632 4.70876C29.9632 4.70876 30.5532 4.99876 30.7932 5.55876C31.0332 6.11876 30.9632 7.21876 28.4332 10.1688L27.4332 11.2988C26.9487 11.7692 26.5314 12.3042 26.1932 12.8888C26.5719 13.3193 27.0018 13.7022 27.4732 14.0288C28.6224 14.8948 29.6339 15.9298 30.4732 17.0988C30.67 17.3261 30.7988 17.6042 30.8447 17.9014C30.8907 18.1985 30.8521 18.5026 30.7332 18.7788C30.5236 19.0846 30.2432 19.3353 29.9159 19.5094C29.5885 19.6836 29.2239 19.776 28.8532 19.7788L25.0632 19.8288L24.8332 19.7888ZM19.5232 14.9488C20.4232 14.9488 21.2032 15.7388 22.0332 16.5688C22.4815 17.0583 22.9848 17.4946 23.5332 17.8688C23.9478 18.1445 24.4352 18.2907 24.9332 18.2888H25.0332L28.8332 18.2388C29.0206 18.228 29.2041 18.1804 29.3732 18.0988L29.2732 17.9388C28.5162 16.9072 27.6134 15.991 26.5932 15.2188C25.4032 14.2188 24.7932 13.7488 24.7232 12.9788C24.6532 12.2088 25.2132 11.5388 26.3332 10.2688L27.3332 9.15876C28.1774 8.29762 28.8705 7.30031 29.3832 6.20876C29.16 6.19553 28.9363 6.19553 28.7132 6.20876H24.3432C24.2641 6.1911 24.1822 6.1911 24.1032 6.20876C23.6403 7.27021 23.0883 8.29052 22.4532 9.25876C20.5632 12.0788 19.6732 12.4588 19.0432 12.4588C18.8478 12.4588 18.6555 12.4107 18.4832 12.3188C17.4832 11.7488 17.4832 10.4788 17.5432 9.55876C17.5432 9.40876 17.5432 9.25876 17.5432 9.12876C17.5432 8.47876 17.5432 7.91876 17.5932 7.43876C17.6732 5.75876 17.5932 5.74876 17.2132 5.65876C16.6009 5.53778 15.9771 5.48413 15.3532 5.49876H14.6632C14.0282 5.48564 13.3932 5.51907 12.7632 5.59876C12.8586 5.66907 12.9429 5.75335 13.0132 5.84876C13.4256 6.4991 13.6313 7.25917 13.6032 8.02876C13.7332 9.67876 13.6632 11.8288 12.6032 12.3488C12.4155 12.4366 12.2104 12.481 12.0032 12.4788C11.0732 12.4788 10.1532 11.5988 8.58316 9.21876C7.98068 8.30748 7.4427 7.35515 6.97316 6.36876L6.89316 6.26876C6.79218 6.21729 6.68446 6.18026 6.57316 6.15876H2.57316H2.50316C3.09316 7.37876 5.89316 12.7788 9.02316 15.6088C10.7807 17.2235 13.0579 18.1563 15.4432 18.2388H17.2932C17.3875 18.2186 17.4785 18.1849 17.5632 18.1388C17.5632 18.1388 17.5632 18.1388 17.5632 18.0488C17.5632 17.7788 17.5632 15.4488 19.1432 15.0488C19.2655 15.0006 19.393 14.967 19.5232 14.9488Z" fill="#192144"/>
  </symbol>
  <symbol id="youtube" viewBox="0 0 25 25">
    <path d="M15.6028 12.2006L11.248 9.29735C11.1934 9.26101 11.13 9.24012 11.0645 9.23693C10.999 9.23373 10.9339 9.24835 10.876 9.27921C10.818 9.30938 10.7695 9.35502 10.7359 9.41107C10.7022 9.46712 10.6848 9.53139 10.6855 9.59675V15.4032C10.6848 15.4686 10.7022 15.5328 10.7359 15.5889C10.7695 15.6449 10.818 15.6906 10.876 15.7207C10.9294 15.7484 10.9883 15.7639 11.0484 15.7661C11.1201 15.7674 11.1902 15.7451 11.248 15.7026L15.6028 12.7994C15.6534 12.7675 15.6951 12.7233 15.724 12.671C15.7529 12.6186 15.7681 12.5598 15.7681 12.5C15.7681 12.4402 15.7529 12.3813 15.724 12.329C15.6951 12.2766 15.6534 12.2325 15.6028 12.2006ZM11.4113 14.7228V10.2772L14.75 12.5L11.4113 14.7228ZM21.7994 7.31046C21.7244 7.03384 21.5863 6.77841 21.3957 6.56429C21.2052 6.35017 20.9676 6.18322 20.7016 6.07659C17.6351 4.89715 12.7087 4.9153 12.5 4.9153C12.2913 4.9153 7.36491 4.89715 4.29837 6.07659C4.03235 6.18322 3.79473 6.35017 3.60422 6.56429C3.41372 6.77841 3.27555 7.03384 3.20059 7.31046C2.97378 8.1905 2.7016 9.80542 2.7016 12.5C2.7016 15.1945 2.97378 16.8095 3.20059 17.6895C3.27555 17.9661 3.41372 18.2215 3.60422 18.4357C3.79473 18.6498 4.03235 18.8167 4.29837 18.9234C7.36491 20.1028 12.2913 20.0847 12.5 20.0847H12.5635C13.1895 20.0847 17.7893 20.0484 20.7016 18.9234C20.9676 18.8167 21.2052 18.6498 21.3957 18.4357C21.5863 18.2215 21.7244 17.9661 21.7994 17.6895C22.0262 16.8095 22.2984 15.1945 22.2984 12.5C22.2984 9.80542 22.0262 8.1905 21.7994 7.31046ZM21.0917 17.508C21.0481 17.6732 20.9663 17.8258 20.8528 17.9534C20.7393 18.0811 20.5974 18.1803 20.4385 18.2429C17.499 19.377 12.5544 19.3588 12.5 19.3588C12.4456 19.3588 7.50099 19.377 4.56148 18.2429C4.40258 18.1803 4.26066 18.0811 4.14718 17.9534C4.0337 17.8258 3.95185 17.6732 3.90825 17.508C3.69051 16.6643 3.42741 15.1129 3.42741 12.5C3.42741 9.88707 3.69051 8.33566 3.90825 7.49191C3.95185 7.32676 4.0337 7.17419 4.14718 7.04653C4.26066 6.91887 4.40258 6.8197 4.56148 6.75703C7.50099 5.62296 12.4456 5.64111 12.5 5.64111C12.5544 5.64111 17.499 5.62296 20.4385 6.75703C20.5974 6.8197 20.7393 6.91887 20.8528 7.04653C20.9663 7.17419 21.0481 7.32676 21.0917 7.49191C21.3095 8.33566 21.5726 9.88707 21.5726 12.5C21.5726 15.1129 21.3095 16.6643 21.0917 17.508Z" fill="black"/>
  </symbol>
  <symbol id="htmlacademy" viewBox="0 0 60 60">
    <path fill="#2E368F" d="M30.2 5h-.2l-19.7 2.1v36.2l19.7 11.7 19.7-11.7v-36.2l-19.5-2.1zm17 36.8l-17.2 10.2-17.2-10.2v-14.8l17.1 10.2v1.8l-11.7-7v1.8l11.8 7.1v1.9l-11.8-7v1.8l11.8 7 11.9-7.1v-7.6l5.3-3.2v15.1zm-.1-17l-4.7 2.8-2.2 1.3-10.3-6.1v1.8l8.8 5.3h-.1l-.2.1-1.3.7-7.3-4.3v1.8l5.8 3.4-1.4.9-4.3-2.6v1.8l2.9 1.7-2.9 1.7-17-10.1 17-10.2 17.2 10zm.1-1.8l-17.3-10.2-17.1 10.2v-13.6l17.2-1.8 17.2 1.8v13.6z"/>
  </symbol>
  <symbol id="user-phone" viewBox="0 0 19 19">
    <path d="M9.77423 8.22389C9.77423 8.41289 9.92786 8.56139 10.1156 8.56139C10.5048 8.56139 10.8189 8.87526 10.8189 9.25664C10.8189 9.44226 10.9725 9.59414 11.1602 9.59414C11.348 9.59414 11.5016 9.44226 11.5016 9.25664C11.5016 8.50064 10.8803 7.88639 10.1156 7.88639C9.92786 7.88639 9.77423 8.03827 9.77423 8.22389ZM15.3319 9.59414C15.5231 9.59414 15.6733 9.44226 15.6733 9.25664C15.6733 6.22589 13.1812 3.76215 10.1156 3.76215C9.92786 3.76215 9.77423 3.914 9.77423 4.09965C9.77423 4.28527 9.92786 4.43715 10.1156 4.43715C12.8057 4.43715 14.9905 6.60051 14.9905 9.25664C14.9905 9.44226 15.1441 9.59414 15.3319 9.59414Z" fill="#161C35"/>
    <path d="M12.9047 9.25661C12.9047 9.44223 13.0583 9.59411 13.2461 9.59411C13.4338 9.59411 13.5874 9.44223 13.5874 9.25661C13.5874 7.36324 12.0307 5.82424 10.1156 5.82424C9.92786 5.82424 9.77423 5.97612 9.77423 6.16174C9.77423 6.35074 9.92786 6.49924 10.1156 6.49924C11.6552 6.49924 12.9047 7.73786 12.9047 9.25661ZM10.1156 1.69998C9.92786 1.69998 9.77423 1.85186 9.77423 2.03748C9.77423 2.22312 9.92786 2.37498 10.1156 2.37498C13.9561 2.37498 17.0798 5.46312 17.0798 9.25661C17.0798 9.44223 17.23 9.59411 17.4211 9.59411C17.6089 9.59411 17.7625 9.44223 17.7625 9.25661C17.7625 5.0885 14.3316 1.69998 10.1156 1.69998ZM13.4509 12.8139L13.0037 13.0535C12.2492 13.4619 11.6621 14.5812 10.7311 13.7375L8.30007 11.3L6.2 9.25661C5.14491 7.92348 6.32631 7.60623 6.73936 6.85699L6.98175 6.41825C7.25485 5.91873 7.35384 5.35849 7.27191 4.79823C7.1934 4.23799 6.93737 3.72836 6.52771 3.32336C6.02931 2.83062 5.36703 2.56062 4.66038 2.56062C3.95372 2.56062 3.28802 2.83062 2.7896 3.32336L2.61552 3.49886C1.69379 4.41012 1.58796 5.97948 2.3151 7.92348C3.00126 9.77973 4.38386 11.7912 6.2 13.5867C8.96858 16.3239 12.0512 17.9 14.2634 17.9C15.1373 17.9 15.8781 17.6536 16.4038 17.1339L16.5813 16.9584C17.0763 16.469 17.3529 15.8142 17.3563 15.1089C17.3529 14.4204 17.0695 13.7454 16.5813 13.2627C15.7586 12.4494 14.4716 12.2671 13.4509 12.8139Z" fill="#161C35"/>
  </symbol>
  <symbol id="user-email" viewBox="0 0 19 17">
    <path d="M2.01661 3.32528L8.76661 7.55572C8.99341 7.69747 9.28681 7.76467 9.58201 7.76467C9.87721 7.76467 10.1706 7.69747 10.3974 7.55572L17.1474 3.32528C17.5875 3.04913 18.0033 1.97498 17.196 1.97498H1.96891C1.16161 1.97498 1.57741 3.04913 2.01661 3.32528ZM17.3517 5.63842L10.3974 9.86677C10.0914 10.0537 9.87721 10.0757 9.58201 10.0757C9.28681 10.0757 9.07261 10.0537 8.76661 9.86677C8.46061 9.67987 2.34691 5.94082 1.84741 5.63737C1.49641 5.42317 1.50001 5.67412 1.50001 5.86732V13.525C1.50001 13.966 2.00941 14.575 2.40001 14.575H16.8C17.1906 14.575 17.7 13.966 17.7 13.525V5.86837C17.7 5.67517 17.7036 5.42422 17.3517 5.63842Z" fill="#161C35"/>
  </symbol>
  <symbol id="contacts-phone" viewBox="0 0 24 24">
    <path fill-rule="evenodd" clip-rule="evenodd" d="M12 0.796875C7.77425 0.796875 3.53833 1.51113 2.00137 2.93476C0.72618 4.11583 0.301098 6.20233 0.157809 7.52341C0.157809 7.52341 0.138062 7.65396 0.138062 7.71011C0.138062 8.22816 0.582782 8.64365 1.12651 8.64365C1.19076 8.64365 3.56809 8.46157 5.00137 8.34956C5.03586 8.34484 5.07062 8.34021 5.10511 8.33091C5.63894 8.31699 6.06902 7.90612 6.06902 7.39738L6.07381 5.55816C6.07381 4.98869 6.5633 4.53117 7.16633 4.53117H16.8336C17.4367 4.53117 17.9263 4.98863 17.9263 5.55816L17.9311 7.39738C17.9311 7.90612 18.3611 8.31699 18.8949 8.33091C18.9292 8.34026 18.9639 8.34484 18.9988 8.34956C20.4322 8.46151 22.8095 8.64365 22.8735 8.64365C23.417 8.64365 23.8621 8.22816 23.8621 7.71011C23.8621 7.65396 23.8423 7.52341 23.8423 7.52341C23.6989 6.20233 23.2743 4.11588 21.9991 2.93476C20.4616 1.51113 16.2257 0.796875 12 0.796875ZM12 12.9335C10.9077 12.9335 10.023 13.769 10.023 14.8006C10.023 15.8322 10.9077 16.6677 12 16.6677C13.0923 16.6677 13.9769 15.8322 13.9769 14.8006C13.9769 13.769 13.0923 12.9335 12 12.9335ZM10.5173 8.73228V7.56533C10.5173 6.92121 9.96363 6.39839 9.28167 6.39839C8.59971 6.39839 8.04608 6.92126 8.04608 7.56533V8.73228L1.37838 15.4588C0.918919 15.8837 0.632177 16.4763 0.632177 17.13V19.0018C0.632177 20.0334 1.51694 20.8689 2.60918 20.8689H3.10346V22.036C3.10346 22.6801 3.65714 23.2028 4.3391 23.2028C5.02106 23.2028 5.57469 22.6801 5.57469 22.036V20.8689H18.4253V22.036C18.4253 22.6801 18.9787 23.2028 19.661 23.2028C20.3429 23.2028 20.8965 22.6801 20.8965 22.036V20.8689H21.3907C22.483 20.8689 23.3677 20.0334 23.3677 19.0018V17.13C23.3677 16.4762 23.081 15.8836 22.6215 15.4588L15.954 8.73228V7.56533C15.954 6.92121 15.4003 6.39839 14.7184 6.39839C14.0364 6.39839 13.4828 6.92126 13.4828 7.56533V8.73228H10.5173ZM12 11.0663C14.1846 11.0663 15.954 12.7374 15.954 14.8006C15.954 16.8638 14.1846 18.5351 12 18.5351C9.81539 18.5351 8.04603 16.8639 8.04603 14.8006C8.04603 12.7374 9.81539 11.0663 12 11.0663Z" fill="#FFD74B"/>
  </symbol>
  <symbol id="contacts-email" viewBox="0 0 28 19">
    <path fill-rule="evenodd" clip-rule="evenodd" d="M24.5439 15.5044L18.0001 9.51085L24.5439 3.51726L23.6516 2.56374L14.1334 11.2817L4.61517 2.56374L3.72284 3.51726L10.2666 9.51085L3.72284 15.5044L4.61517 16.458L11.2333 10.3963L14.1334 13.0525L17.0334 10.3963L23.6516 16.458L24.5439 15.5044ZM2.53704 0.0664062C1.31453 0.0664062 0.323486 1.12243 0.323486 2.42051V16.6012C0.323486 17.9013 1.30649 18.9553 2.53704 18.9553H25.7297C26.9522 18.9553 27.9432 17.8993 27.9432 16.6012V2.42051C27.9432 1.12037 26.9602 0.0664062 25.7297 0.0664062H2.53704Z" fill="#FFD74B"/>
  </symbol>
  <symbol id="contact-phone" viewBox="0 0 19 17">
    <path fill-rule="evenodd" clip-rule="evenodd" d="M9.50001 1.08615C6.70356 1.08615 3.90039 1.55882 2.88328 2.50093C2.0394 3.28252 1.7581 4.66329 1.66328 5.53753C1.66328 5.53753 1.65021 5.62393 1.65021 5.66109C1.65021 6.00391 1.94451 6.27887 2.30433 6.27887C2.34684 6.27887 3.92008 6.15837 4.86857 6.08425C4.8914 6.08112 4.9144 6.07806 4.93722 6.07191C5.29049 6.0627 5.57511 5.7908 5.57511 5.45413L5.57828 4.237C5.57828 3.86014 5.9022 3.55737 6.30126 3.55737H12.6987C13.0979 3.55737 13.4218 3.86011 13.4218 4.237L13.425 5.45413C13.425 5.7908 13.7096 6.0627 14.0628 6.07191C14.0855 6.0781 14.1085 6.08112 14.1316 6.08425C15.0802 6.15834 16.6534 6.27887 16.6957 6.27887C17.0554 6.27887 17.3499 6.00391 17.3499 5.66109C17.3499 5.62393 17.3369 5.53753 17.3369 5.53753C17.242 4.66329 16.961 3.28255 16.1171 2.50093C15.0996 1.55882 12.2965 1.08615 9.50001 1.08615ZM9.50001 9.11773C8.77717 9.11773 8.1917 9.67064 8.1917 10.3533C8.1917 11.036 8.77717 11.5889 9.50001 11.5889C10.2229 11.5889 10.8083 11.036 10.8083 10.3533C10.8083 9.67064 10.2229 9.11773 9.50001 9.11773ZM8.51879 6.33752V5.56528C8.51879 5.13902 8.15242 4.79304 7.70113 4.79304C7.24983 4.79304 6.88346 5.13905 6.88346 5.56528V6.33752L2.47101 10.7889C2.16695 11.07 1.9772 11.4622 1.9772 11.8948V13.1335C1.9772 13.8162 2.5627 14.3691 3.28551 14.3691H3.6126V15.1414C3.6126 15.5677 3.97901 15.9136 4.43031 15.9136C4.8816 15.9136 5.24798 15.5677 5.24798 15.1414V14.3691H13.752V15.1414C13.752 15.5677 14.1183 15.9136 14.5698 15.9136C15.0211 15.9136 15.3874 15.5677 15.3874 15.1414V14.3691H15.7145C16.4373 14.3691 17.0228 13.8162 17.0228 13.1335V11.8948C17.0228 11.4622 16.833 11.07 16.5289 10.7889L12.1167 6.33752V5.56528C12.1167 5.13902 11.7502 4.79304 11.2989 4.79304C10.8476 4.79304 10.4813 5.13905 10.4813 5.56528V6.33752H8.51879ZM9.50001 7.8821C10.9457 7.8821 12.1167 8.98799 12.1167 10.3533C12.1167 11.7187 10.9457 12.8247 9.50001 12.8247C8.05432 12.8247 6.88342 11.7187 6.88342 10.3533C6.88342 8.98795 8.05432 7.8821 9.50001 7.8821Z" fill="#FFD74B"/>
  </symbol>
  <symbol id="contact-email" viewBox="0 0 24 25">
    <path fill-rule="evenodd" clip-rule="evenodd" d="M19.1393 16.4663L14.8089 12.5L19.1393 8.53365L18.5488 7.90264L12.25 13.6719L5.9512 7.90264L5.36069 8.53365L9.69112 12.5L5.36069 16.4663L5.9512 17.0974L10.3308 13.0859L12.25 14.8438L14.1692 13.0859L18.5488 17.0974L19.1393 16.4663ZM4.57597 6.25C3.76695 6.25 3.11111 6.94884 3.11111 7.80786V17.1921C3.11111 18.0525 3.76163 18.75 4.57597 18.75H19.924C20.7331 18.75 21.3889 18.0512 21.3889 17.1921V7.80786C21.3889 6.94748 20.7384 6.25 19.924 6.25H4.57597Z" fill="#FFD74B"/>
  </symbol>
  <symbol id="level-99" viewBox="0 0 46 45">
    <path d="M23.5454 1.52201C28.9393 1.76918 34.0308 4.08455 37.7624 7.98727C41.494 11.89 43.5789 17.0801 43.5841 22.4797C43.5893 27.8793 41.5145 33.0735 37.7904 36.9834C34.0664 40.8933 28.9794 43.2185 23.5859 43.4761C18.1924 43.7337 12.907 41.9038 8.82729 38.3666C4.74759 34.8294 2.18716 29.8566 1.67778 24.4811C1.16839 19.1056 2.74919 13.7404 6.09186 9.49979C9.43454 5.25923 14.2822 2.46918 19.6281 1.7091" stroke="#FF8D30" stroke-width="3" stroke-linecap="round"/>
  </symbol>
  <symbol id="level-80" viewBox="0 0 46 45">
    <path d="M23.5144 1.50818C27.9498 1.63199 32.232 3.15753 35.7466 5.86592C39.2613 8.57431 41.8277 12.3264 43.0778 16.5838C44.3278 20.8412 44.1972 25.3851 42.7047 29.5637C41.2122 33.7423 38.4345 37.3407 34.7702 39.8428C31.1058 42.3449 26.743 43.6219 22.3078 43.4908C17.8726 43.3597 13.593 41.8271 10.0828 39.113C6.57259 36.3988 4.01232 32.6425 2.76927 28.3831C1.52623 24.1236 1.6643 19.5799 3.16367 15.4038" stroke="#FF8D30" stroke-width="3" stroke-linecap="round"/>
  </symbol>
  <symbol id="level-25" viewBox="0 0 25 24">
    <path d="M1.5841 1.5C4.34186 1.5 7.07262 2.04318 9.62046 3.09853C12.1683 4.15388 14.4833 5.70073 16.4333 7.65076C18.3834 9.60079 19.9302 11.9158 20.9856 14.4636C22.0409 17.0115 22.5841 19.7422 22.5841 22.5" stroke="#FF8D30" stroke-width="3" stroke-linecap="round"/>
  </symbol>
  <symbol  id="level-50" viewBox="0 0 25 47">
    <path d="M1.92825 1.60522C7.63041 1.60522 13.099 3.8704 17.131 7.90243C21.1631 11.9345 23.4283 17.4031 23.4283 23.1052C23.4283 28.8074 21.1631 34.276 17.1311 38.308C13.099 42.34 7.63042 44.6052 1.92827 44.6052" stroke="#FF8D30" stroke-width="3" stroke-linecap="round"/>
  </symbol>
</svg>
