<svg xmlns="http://www.w3.org/2000/svg" xmlns:xlink="http://www.w3.org/1999/xlink"><defs><clipPath id="a"><path fill="#fff" transform="translate(.08 .92)" d="M0 0h17.04v19.2H0z"/></clipPath><clipPath id="a"><path fill="#fff" transform="translate(0 .086)" d="M0 0h27v33.303H0z"/></clipPath></defs><symbol id="arr-left"><g fill="none"><path d="M8.812.4a1.064 1.064 0 0 0-.345-.26.958.958 0 0 0-.814 0c-.13.06-.246.149-.345.26L.248 8.373a.972.972 0 0 0-.183.31 1.063 1.063 0 0 0 0 .732.972.972 0 0 0 .183.31l7.06 7.972a.978.978 0 0 0 1.504 0c.416-.47.071-.964-.345-1.434l-3.718-4.178-2.62-3.067 6.692-7.714s.407-.442-.01-.902Z" fill="#000"/></g></symbol><symbol id="arr-right"><g fill="none"><path d="M1.07 18.37c.098.111.215.2.344.26a.959.959 0 0 0 .815 0c.129-.06.246-.149.344-.26l7.061-7.972a.973.973 0 0 0 .184-.31 1.064 1.064 0 0 0 0-.732.972.972 0 0 0-.184-.31l-7.06-7.972a.978.978 0 0 0-1.505 0c-.416.47.255 1.285.671 1.755l6.085 6.893-6.41 7.25c-.408.46-.762.937-.346 1.397Z" fill="#000"/></g></symbol><symbol id="bicycle"><g fill="none"><path d="M18.308 21a4.21 4.21 0 0 1-2.363-.727 4.3 4.3 0 0 1-1.566-1.935 4.368 4.368 0 0 1-.242-2.492 4.332 4.332 0 0 1 1.163-2.208 4.235 4.235 0 0 1 2.178-1.18 4.198 4.198 0 0 1 2.457.245c.777.327 1.441.88 1.908 1.589a4.356 4.356 0 0 1-.53 5.443A4.227 4.227 0 0 1 18.308 21Zm0-7.125c-.549 0-1.085.165-1.541.474a2.804 2.804 0 0 0-1.022 1.262 2.85 2.85 0 0 0-.158 1.625c.107.546.372 1.047.76 1.44a2.738 2.738 0 0 0 3.023.61c.506-.213.939-.573 1.243-1.036a2.84 2.84 0 0 0-.345-3.55 2.758 2.758 0 0 0-1.96-.825ZM6.105 21a4.21 4.21 0 0 1-2.363-.727 4.3 4.3 0 0 1-1.566-1.935 4.369 4.369 0 0 1-.242-2.492 4.331 4.331 0 0 1 1.164-2.208 4.235 4.235 0 0 1 2.177-1.18 4.198 4.198 0 0 1 2.457.245c.777.327 1.441.88 1.908 1.589a4.356 4.356 0 0 1-.53 5.443A4.227 4.227 0 0 1 6.105 21Zm0-7.125c-.549 0-1.085.165-1.541.474a2.804 2.804 0 0 0-1.022 1.262 2.85 2.85 0 0 0-.158 1.625c.107.546.372 1.047.76 1.44a2.738 2.738 0 0 0 3.022.61c.507-.213.94-.573 1.245-1.036a2.84 2.84 0 0 0-.346-3.55 2.758 2.758 0 0 0-1.96-.825ZM15.164 6a1.456 1.456 0 0 0 1.05-.44 1.497 1.497 0 0 0 .43-1.065 1.5 1.5 0 0 0-.426-1.06A1.457 1.457 0 0 0 15.174 3a1.461 1.461 0 0 0-1.048.436 1.501 1.501 0 0 0-.436 1.06 1.518 1.518 0 0 0 .43 1.061A1.478 1.478 0 0 0 15.164 6Z" fill="#1D2E5B"/><path d="M17.362 9H15.34a.183.183 0 0 1-.163-.097L13.71 6.176a1.447 1.447 0 0 0-.435-.511 1.422 1.422 0 0 0-1.847.148l-3.23 3.3c-.27.28-.425.656-.43 1.05 0 .815.583 1.106.856 1.27 1.317.77 2.245 1.332 2.754 1.645a.186.186 0 0 1 .088.16v3.24c0 .404.306.75.704.77a.732.732 0 0 0 .546-.206.75.75 0 0 0 .23-.542v-4.031a.759.759 0 0 0-.308-.61l-1.71-1.247a.187.187 0 0 1-.077-.134.19.19 0 0 1 .05-.147l1.941-2.1a.184.184 0 0 1 .239-.027.186.186 0 0 1 .058.064l1.008 1.846a.745.745 0 0 0 .647.386h2.59a.73.73 0 0 0 .535-.232A.751.751 0 0 0 17.362 9Z" fill="#1D2E5B"/></g></symbol><symbol id="bus"><g fill="none"><g clip-path="url(#a)"><path d="M4.34 13.948a1.3 1.3 0 0 0-.415-.97 1.392 1.392 0 0 0-1.004-.4c-.392 0-.726.133-1.003.4a1.3 1.3 0 0 0-.416.97c0 .38.138.702.416.97.277.268.611.402 1.003.402.392 0 .726-.134 1.004-.402.277-.268.415-.59.415-.97Zm11.356 0a1.3 1.3 0 0 0-.416-.97 1.392 1.392 0 0 0-1.004-.4c-.392 0-.726.133-1.003.4a1.3 1.3 0 0 0-.416.97c0 .38.139.702.416.97.277.268.611.402 1.003.402.392 0 .727-.134 1.004-.402a1.3 1.3 0 0 0 .416-.97Zm-.51-4.242-.799-4.115a.695.695 0 0 0-.25-.401.698.698 0 0 0-.449-.156H3.508c-.17 0-.319.052-.448.156a.695.695 0 0 0-.25.401l-.798 4.115a.661.661 0 0 0 .155.568c.14.164.322.246.543.246h11.777a.682.682 0 0 0 .543-.246.661.661 0 0 0 .155-.568Zm-2.507-6.558a.488.488 0 0 0-.155-.364.523.523 0 0 0-.377-.15H5.05a.523.523 0 0 0-.377.15.488.488 0 0 0-.155.364.523.523 0 0 0 .532.514h7.097c.148 0 .274-.05.377-.15a.488.488 0 0 0 .155-.364Zm4.436 7.768v6.461h-1.42v1.372a1.3 1.3 0 0 1-.415.97 1.392 1.392 0 0 1-1.004.4c-.392 0-.726-.133-1.003-.4a1.3 1.3 0 0 1-.416-.97v-1.372H4.34v1.372c0 .378-.138.701-.415.97a1.392 1.392 0 0 1-1.004.4c-.392 0-.726-.133-1.003-.4a1.3 1.3 0 0 1-.416-.97v-1.372H.082v-6.46c0-.8.093-1.597.278-2.39l1.142-4.864c.066-.557.427-1.047 1.08-1.468.655-.422 1.505-.74 2.551-.954C6.18 1.027 7.335.92 8.6.92c1.264 0 2.419.107 3.465.321 1.046.215 1.896.532 2.55.954.655.421 1.015.91 1.082 1.468l1.164 4.864c.17.729.255 1.525.255 2.39Z" fill="#1D2E5B"/></g></g></symbol><symbol id="icon-arrow-bend"><g fill="none"><path fill-rule="evenodd" clip-rule="evenodd" d="M4 16h24a4 4 0 0 0 4-4V7a4 4 0 0 0-4-4H4v2h24a2 2 0 0 1 2 2v5a2 2 0 0 1-2 2H4v2Z" fill="#fff"/><path d="M0 4 9 .536v6.928L0 4Z" fill="#fff"/></g></symbol><symbol id="icon-call"><g fill="none"><path d="M9.774 8.224c0 .189.154.337.342.337a.7.7 0 0 1 .703.696.34.34 0 0 0 .341.337.34.34 0 0 0 .342-.337 1.38 1.38 0 0 0-1.386-1.37.34.34 0 0 0-.342.337Zm5.558 1.37a.338.338 0 0 0 .341-.337c0-3.031-2.492-5.495-5.557-5.495a.34.34 0 0 0-.342.338.34.34 0 0 0 .342.337c2.69 0 4.875 2.164 4.875 4.82a.34.34 0 0 0 .34.337Z" fill="#161C35"/><path d="M12.905 9.257a.34.34 0 0 0 .341.337.34.34 0 0 0 .341-.337c0-1.894-1.556-3.433-3.471-3.433a.34.34 0 0 0-.342.338c0 .189.154.337.342.337 1.54 0 2.789 1.239 2.789 2.758ZM10.115 1.7a.34.34 0 0 0-.34.337.34.34 0 0 0 .34.338c3.841 0 6.965 3.088 6.965 6.882 0 .185.15.337.341.337a.34.34 0 0 0 .341-.337c0-4.168-3.43-7.557-7.646-7.557Zm3.336 11.114-.447.24c-.755.408-1.342 1.527-2.273.684L8.301 11.3 6.2 9.257c-1.055-1.334.126-1.65.54-2.4l.242-.439c.273-.5.372-1.06.29-1.62a2.557 2.557 0 0 0-.744-1.475 2.636 2.636 0 0 0-1.868-.762c-.706 0-1.372.27-1.87.762l-.174.176c-.922.911-1.028 2.48-.3 4.424C3 9.78 4.383 11.791 6.2 13.587c2.769 2.737 5.851 4.313 8.063 4.313.874 0 1.615-.246 2.14-.766l.178-.176c.495-.489.772-1.144.775-1.85a2.636 2.636 0 0 0-.775-1.845 2.683 2.683 0 0 0-3.13-.45Z" fill="#161C35"/></g></symbol><symbol id="icon-email"><g fill="none"><path d="m2.017 3.325 6.75 4.23c.226.142.52.21.815.21.295 0 .589-.068.815-.21l6.75-4.23c.44-.276.856-1.35.049-1.35H1.969c-.807 0-.392 1.074.048 1.35Zm15.335 2.313-6.955 4.229c-.306.187-.52.209-.815.209-.295 0-.51-.022-.815-.21-.306-.186-6.42-3.925-6.92-4.229-.35-.214-.347.037-.347.23v7.658c0 .441.51 1.05.9 1.05h14.4c.39 0 .9-.609.9-1.05V5.868c0-.193.004-.444-.348-.23Z" fill="#161C35"/></g></symbol><symbol id="icon-mail"><g fill="none"><path fill-rule="evenodd" clip-rule="evenodd" d="M19.14 16.466 14.808 12.5l4.33-3.966-.59-.631-6.299 5.769-6.299-5.77-.59.632L9.69 12.5l-4.33 3.966.59.631 4.38-4.011 1.919 1.758 1.92-1.758 4.379 4.011.59-.63ZM4.575 6.25c-.809 0-1.465.699-1.465 1.558v9.384c0 .86.65 1.558 1.465 1.558h15.348c.81 0 1.465-.699 1.465-1.558V7.808c0-.86-.65-1.558-1.465-1.558H4.576Z" fill="#FFD74B"/></g></symbol><symbol id="icon-telephone"><g fill="none"><path fill-rule="evenodd" clip-rule="evenodd" d="M9.5 1.086c-2.796 0-5.6.473-6.617 1.415-.844.782-1.125 2.162-1.22 3.037 0 0-.013.086-.013.123 0 .343.295.618.654.618.043 0 1.616-.12 2.565-.195.022-.003.045-.006.068-.012.353-.01.638-.281.638-.618l.003-1.217c0-.377.324-.68.723-.68H12.7c.399 0 .723.303.723.68l.003 1.217c0 .337.285.609.638.618.022.006.045.01.069.012.948.074 2.521.195 2.564.195.36 0 .654-.275.654-.618 0-.037-.013-.123-.013-.123-.095-.875-.376-2.255-1.22-3.037-1.017-.942-3.82-1.415-6.617-1.415Zm0 8.032c-.723 0-1.308.553-1.308 1.235 0 .683.585 1.236 1.308 1.236.723 0 1.308-.553 1.308-1.236 0-.682-.585-1.235-1.308-1.235Zm-.981-2.78v-.773c0-.426-.367-.772-.818-.772-.451 0-.818.346-.818.772v.773l-4.412 4.45a1.504 1.504 0 0 0-.494 1.107v1.239c0 .682.586 1.235 1.309 1.235h.327v.772c0 .427.366.773.817.773.452 0 .818-.346.818-.773v-.772h8.504v.772c0 .427.366.773.818.773.451 0 .817-.346.817-.773v-.772h.327c.723 0 1.309-.553 1.309-1.236v-1.238c0-.433-.19-.825-.494-1.106l-4.412-4.451v-.773c0-.426-.367-.772-.818-.772-.451 0-.818.346-.818.772v.773H8.52ZM9.5 7.882c1.446 0 2.617 1.106 2.617 2.471 0 1.366-1.171 2.472-2.617 2.472s-2.617-1.106-2.617-2.472c0-1.365 1.171-2.47 2.617-2.47Z" fill="#FFD74B"/></g></symbol><symbol id="level-25"><g fill="none"><path d="M1.584 1.5a21 21 0 0 1 21 21" stroke="#FF8D30" stroke-width="3" stroke-linecap="round"/></g></symbol><symbol id="level-50"><g fill="none"><path d="M1.928 1.605a21.5 21.5 0 1 1 0 43" stroke="#FF8D30" stroke-width="3" stroke-linecap="round"/></g></symbol><symbol id="level-80"><g fill="none"><path d="M23.514 1.508a21 21 0 1 1-20.35 13.896" stroke="#FF8D30" stroke-width="3" stroke-linecap="round"/></g></symbol><symbol id="level-99"><g fill="none"><path d="M23.545 1.522a21 21 0 1 1-3.917.187" stroke="#FF8D30" stroke-width="3" stroke-linecap="round"/></g></symbol><symbol id="logo-html"><g fill="none"><g clip-path="url(#a)"><path d="M13.643.101 13.5.086 0 1.464v24.102l13.5 7.823L27 25.566V1.464L13.643.101ZM25.234 24.59l-11.734 6.8-11.734-6.8v-9.88l11.685 6.774.02 1.228-8.017-4.646-.011 1.2 8.046 4.71.02 1.26-8.045-4.66-.01 1.2 8.046 4.71 8.124-4.734v-5.103l3.62-2.105-.01 10.046Zm0-11.327-3.22 1.842-1.482.857-7.065-4.101-.011 1.2 6.04 3.5-.053.03-.13.074-.86.482-4.986-2.888-.011 1.2 3.936 2.28-.933.598-.021.012-2.971-1.706-.011 1.2 1.947 1.11-1.988 1.163-11.618-6.731 11.638-6.815 11.8 6.693Zm0-1.2L13.44 5.288 1.766 12.055v-9.04l11.734-1.2 11.734 1.2v9.047Z" fill="#192144"/></g></g></symbol><symbol id="plane"><g fill="none"><path d="M15.783.093c-.728.173-1.46.347-1.733.824l-2.107 4.199L.63 7.806.171 9.147l8.658.82-1.47 3.634-3.283.78-.824 1.43 2.369.256.27 1.169c.12.414.545.69.908.604l1.095-.26 1.268 2.163.825-1.428-.81-3.505 2.377-3.03 4.536 7.961.914-1.038L14.213 6.63l2.563-3.895c.276-.477.096-1.255-.085-2.036-.09-.387-.545-.691-.908-.605Z" fill="#101D41"/></g></symbol><symbol id="polygon"><g fill="none"><path d="M12.86 7 .965 13.062V.938L12.86 7Z" fill="#1D2E5B"/></g></symbol><symbol id="run"><g fill="none"><path d="M14.976 5.76c.95 0 1.721-.86 1.721-1.92s-.77-1.92-1.721-1.92c-.95 0-1.721.86-1.721 1.92s.77 1.92 1.72 1.92ZM13.923 10.53c.198.329.481.581.812.724.33.142.693.168 1.037.073l2.854-.796-.416-1.862-2.854.796L14.17 7.48a1.735 1.735 0 0 0-1.094-.82l-3.31-.739a1.56 1.56 0 0 0-1.094.158c-.34.185-.614.49-.783.867l-1.427 3.183 1.54.86 1.427-3.185 1.692.378-4.377 8.138H2.928v1.92h3.815c.601 0 1.167-.357 1.476-.932L9.87 14.24l4.448.992 1.563 5.231 1.632-.607-1.562-5.23a1.955 1.955 0 0 0-.495-.833 1.665 1.665 0 0 0-.801-.444l-2.615-.583 1.525-2.836.358.6Z" fill="#1D2E5B"/></g></symbol><symbol id="telegram"><g fill="none"><path d="M20.124.563a1.502 1.502 0 0 0-1.521-.236l-17.34 7a1.493 1.493 0 0 0 .076 2.79l3.742 1.3 2.027 6.702c.004.013.017.022.022.035a.475.475 0 0 0 .309.284c.01.003.016.012.026.014H7.474a.434.434 0 0 0 .225-.011c.008-.002.016-.002.025-.005a.479.479 0 0 0 .184-.118c.006-.007.016-.008.022-.014l2.915-3.218 4.256 3.295c.258.202.576.312.905.312.71 0 1.322-.498 1.468-1.192L20.631 2a1.484 1.484 0 0 0-.507-1.438ZM8.166 12.689l-.684 3.326-1.428-4.72 7.08-3.688-4.837 4.837a.482.482 0 0 0-.131.245Zm8.36 4.618a.523.523 0 0 1-.336.386.507.507 0 0 1-.497-.076l-4.61-3.57a.483.483 0 0 0-.654.058L8.4 16.343l.683-3.316 6.957-6.959a.484.484 0 0 0-.565-.77L5.446 10.52l-3.79-1.318a.509.509 0 0 1-.35-.476.515.515 0 0 1 .324-.502l17.336-7a.518.518 0 0 1 .54.084.506.506 0 0 1 .176.501l-3.156 15.499v-.001Z" fill="#000"/></g></symbol><symbol id="vkontakte"><g fill="none"><path d="M24.833 19.789a4.051 4.051 0 0 1-2.08-.63 10.17 10.17 0 0 1-1.78-1.53c-.44-.44-1.17-1.18-1.45-1.18s-.48.92-.47 1.57a1.75 1.75 0 0 1-.47 1.21 2.26 2.26 0 0 1-1.22.5h-1.92a11.32 11.32 0 0 1-7.43-3c-3.68-3.37-6.84-9.81-6.97-10.09a1.34 1.34 0 0 1 .15-1.48 2.07 2.07 0 0 1 1.36-.48h4.2c.338.049.661.168.95.35.272.182.49.434.63.73a22.09 22.09 0 0 0 1.48 2.67c1.31 2 1.89 2.46 2.1 2.56.234-.938.298-1.91.19-2.87a2.702 2.702 0 0 0-.21-1.28 1.33 1.33 0 0 0-.77-.29l-.73-.69c-.14-.66.59-1.23 1.1-1.45a8.69 8.69 0 0 1 3.15-.38h.71a9.11 9.11 0 0 1 2.15.2c1.7.36 1.64 1.73 1.57 3.31 0 .46-.05 1-.05 1.62v.48c-.04.435-.009.874.09 1.3a9.091 9.091 0 0 0 2.07-2.48 20.396 20.396 0 0 0 1.52-2.8 1.58 1.58 0 0 1 1.6-.95h4.28a2 2 0 0 1 .38 0c1 0 1.59.29 1.83.85s.17 1.66-2.36 4.61l-1 1.13a7.337 7.337 0 0 0-1.24 1.59c.379.43.809.813 1.28 1.14 1.15.866 2.16 1.9 3 3.07a1.599 1.599 0 0 1 .26 1.68 2.301 2.301 0 0 1-1.88 1l-3.79.05-.23-.04Zm-5.31-4.84c.9 0 1.68.79 2.51 1.62.448.49.952.926 1.5 1.3.415.276.902.422 1.4.42h.1l3.8-.05c.188-.011.371-.059.54-.14l-.1-.16a13.221 13.221 0 0 0-2.68-2.72c-1.19-1-1.8-1.47-1.87-2.24-.07-.77.49-1.44 1.61-2.71l1-1.11a10.731 10.731 0 0 0 2.05-2.95 5.66 5.66 0 0 0-.67 0h-4.37a.55.55 0 0 0-.24 0 20.507 20.507 0 0 1-1.65 3.05c-1.89 2.82-2.78 3.2-3.41 3.2a1.19 1.19 0 0 1-.56-.14c-1-.57-1-1.84-.94-2.76v-.43c0-.65 0-1.21.05-1.69.08-1.68 0-1.69-.38-1.78a8.561 8.561 0 0 0-1.86-.16h-.69a13 13 0 0 0-1.9.1c.096.07.18.154.25.25.413.65.618 1.41.59 2.18.13 1.65.06 3.8-1 4.32a1.382 1.382 0 0 1-.6.13c-.93 0-1.85-.88-3.42-3.26a23.42 23.42 0 0 1-1.61-2.85l-.08-.1a1.21 1.21 0 0 0-.32-.11h-4.07c.59 1.22 3.39 6.62 6.52 9.45a10 10 0 0 0 6.42 2.63h1.85c.095-.02.186-.054.27-.1v-.09c0-.27 0-2.6 1.58-3 .122-.048.25-.082.38-.1Z" fill="#192144"/></g></symbol><symbol id="youtube"><g fill="none"><path d="m15.603 12.2-4.355-2.903a.363.363 0 0 0-.563.3v5.806a.353.353 0 0 0 .191.318.407.407 0 0 0 .172.045.327.327 0 0 0 .2-.063l4.355-2.904a.355.355 0 0 0 0-.598Zm-4.192 2.523v-4.446L14.75 12.5l-3.339 2.223ZM21.8 7.31a1.85 1.85 0 0 0-1.097-1.233c-3.067-1.18-7.993-1.162-8.202-1.162-.209 0-5.135-.018-8.202 1.162A1.85 1.85 0 0 0 3.201 7.31c-.227.88-.5 2.495-.5 5.19 0 2.694.273 4.31.5 5.19a1.852 1.852 0 0 0 1.097 1.233c3.067 1.18 7.993 1.162 8.202 1.162h.063c.627 0 5.226-.037 8.139-1.162a1.852 1.852 0 0 0 1.097-1.233c.227-.88.5-2.496.5-5.19 0-2.695-.273-4.31-.5-5.19Zm-.707 10.198a1.088 1.088 0 0 1-.653.735c-2.94 1.134-7.885 1.116-7.939 1.116-.054 0-4.999.018-7.939-1.116a1.088 1.088 0 0 1-.653-.735c-.217-.844-.48-2.395-.48-5.008s.263-4.164.48-5.008a1.089 1.089 0 0 1 .653-.735c2.94-1.134 7.885-1.116 7.939-1.116.054 0 4.999-.018 7.939 1.116a1.089 1.089 0 0 1 .653.735c.218.844.48 2.395.48 5.008s-.262 4.164-.48 5.008Z" fill="#000"/></g></symbol></svg>